<svg xmlns="http://www.w3.org/2000/svg" viewBox="0 0 127.29 121.56"><defs><style>.cls-1{fill:#754c24;}.cls-2{fill:#ffc98e;}</style></defs><g id="Layer_2" data-name="Layer 2"><g id="Layer_1-2" data-name="Layer 1"><path class="cls-1" d="M127.12,72.08c-1.29-4.54-2.73-6.46-4.47-7.71a13.07,13.07,0,0,0-6.46-3,33.28,33.28,0,0,0-8.45-.25v-9L.12,52c-.5,7.2.74,19.38.74,19.38s.75,13.17,8.2,24.11,22.87,14.91,22.87,14.91,42.75.25,43.74,0c14.68-3.67,20.88-12.67,21.38-13.17,1.37-1.37,1-2.24,1.74-2.24,8.7,0,16.65-2.48,22.62-7S127.62,73.82,127.12,72.08Zm-9.44,8c-3.48,5.47-14.67,7-14.42,6.46C106.45,80.13,107,69.1,107,69.1c6-1.25,9.94.74,10.44,1.24S121.16,74.56,117.68,80Z"/><path class="cls-1" d="M10.8,113.34h90.72a5.48,5.48,0,0,1-4.22,5.46c-.24.07-18.39,0-18.39,0a3.28,3.28,0,0,1-2.49,2.74c-.24,0-40.76,0-40.76,0a3.65,3.65,0,0,1-2.49-2.74c-.05-.24-18.39,0-18.39,0A5.85,5.85,0,0,1,10.8,113.34Z"/><path class="cls-1" d="M43.86,48s7.71-3.23,2.49-13.92c-1.13-2.3-7.11-7.22-6.47-17.89C40.38,8,54.3,0,58.53,0c1,0-11.93,7-7,21.37C53.8,27.84,60,35.54,56.29,41.76S43.86,48,43.86,48Z"/><path class="cls-1" d="M65.93,22.64s-3.89,1.64-1.25,7c.56,1.17,3.59,3.65,3.27,9.06-.26,4.15-7.3,8.17-9.44,8.17-.5,0,6-3.55,3.53-10.81-1.14-3.27-4.28-7.17-2.39-10.31S65.93,22.64,65.93,22.64Z"/><path class="cls-2" d="M8.59,78.34A1.11,1.11,0,0,0,9.83,79.4c.58,0,.89-.17.89-.57s-.38-.61-1.89-1C5.52,77,5,75.79,5,74.39S6.06,71,9.65,71c3.31,0,4.73,1.56,4.86,3.34H10.72a.88.88,0,0,0-1-.88c-.45,0-.72.13-.72.48s.33.49,1.84.91c3.47.95,4,2.16,4,3.59,0,1.94-1.53,3.38-5,3.38-3.27,0-4.91-1.46-5.08-3.5Z"/><path class="cls-2" d="M19.82,70.9v3.47a3.08,3.08,0,0,1,2.27-.94c1.83,0,2.52,1.24,2.52,3v5.18h-4V76.74c0-.49-.12-.68-.39-.68s-.43.31-.43,1v4.51h-4V70.9Z"/><path class="cls-2" d="M29.68,78.31c0,.7.09,1.27.65,1.27s.6-.29.66-.63h3.83c-.31,1.22-1.27,2.83-4.52,2.83-3.63,0-4.63-2.16-4.63-4.2s1.21-4.15,4.65-4.15c3.64,0,4.56,2.31,4.56,4.18,0,.25,0,.51,0,.7Zm1.21-1.73c0-.57-.05-1-.6-1s-.61.42-.61,1Z"/><path class="cls-2" d="M44.81,80.1c0,2.68-.92,4.32-4.71,4.32-3.52,0-4.11-1.77-4.25-2.71h3.8a.51.51,0,0,0,.59.49c.43,0,.61-.25.61-1.19v-.6a2.23,2.23,0,0,1-2.05.89c-2,0-3.1-1.63-3.1-3.74,0-2.5,1.32-4.13,3.28-4.13,1.15,0,1.72.45,1.87.87a5.82,5.82,0,0,1,.07-.66h3.92c0,.32,0,1.08,0,2.28Zm-5-2.75c0,1,.11,1.64.6,1.64s.6-.53.6-1.59c0-1.25,0-1.69-.56-1.69S39.77,76.12,39.77,77.35Z"/><path class="cls-2" d="M49.9,78.31c0,.7.09,1.27.66,1.27s.59-.29.65-.63H55c-.31,1.22-1.26,2.83-4.51,2.83-3.64,0-4.64-2.16-4.64-4.2s1.21-4.15,4.65-4.15c3.64,0,4.56,2.31,4.56,4.18,0,.25,0,.51,0,.7Zm1.21-1.73c0-.57,0-1-.6-1s-.61.42-.61,1Z"/><path class="cls-2" d="M56.19,76.15c0-.84,0-1.82,0-2.51H60c0,.39.09.85.09,1.2a2.44,2.44,0,0,1,2.3-1.41v3.49c-1.82-.09-2.26.38-2.26,1.6v3h-4Z"/><path class="cls-2" d="M76.47,77.91c-.33,2.5-2.09,3.93-5.26,3.93-3.49,0-5.28-2.22-5.28-5.31S67.56,71,71.4,71c3.42,0,4.88,1.94,5,3.83h-4c-.06-.79-.34-1.28-1-1.28-1,0-1.17,1.09-1.17,2.83,0,1.55.16,2.88,1.16,2.88.79,0,1-.66,1.09-1.37Z"/><path class="cls-2" d="M85.88,78.8c0,1.13,0,2.36.08,2.77H82.42a3.76,3.76,0,0,1-.15-.76,2.85,2.85,0,0,1-2.34,1,2.49,2.49,0,0,1-2.75-2.58c0-2,1.55-2.7,4.15-2.7h.78v-.43c0-.46-.15-.62-.49-.62s-.49.25-.52.67H77.53c.08-1.05.63-2.69,4.13-2.69s4.22,1.3,4.22,3.22Zm-3.77-.68h-.37c-.57,0-.76.28-.76.68a.53.53,0,0,0,.52.6c.49,0,.61-.3.61-1Z"/><path class="cls-2" d="M87.63,81.57V76h-.88V73.64h.88v-.15c0-1.73.85-2.74,3.22-2.74a8.27,8.27,0,0,1,1.49.12v2.07a1.43,1.43,0,0,0-.33,0,.35.35,0,0,0-.4.39v.34h1V76h-1v5.54Z"/><path class="cls-2" d="M97,78.31c0,.7.09,1.27.66,1.27s.59-.29.65-.63h3.84c-.32,1.22-1.27,2.83-4.52,2.83C94,81.78,93,79.62,93,77.58s1.21-4.15,4.65-4.15c3.64,0,4.57,2.31,4.57,4.18,0,.25,0,.51,0,.7Zm1.21-1.73c0-.57,0-1-.6-1s-.61.42-.61,1Z"/></g></g></svg>