<svg xmlns="http://www.w3.org/2000/svg" viewBox="0 0 512.15 489.1"><defs><style>.cls-1{fill:#ffc98e;}.cls-2{fill:#754c24;}</style></defs><g id="Layer_2" data-name="Layer 2"><g id="Layer_1-2" data-name="Layer 1"><path class="cls-1" d="M511.47,290c-5.21-18.24-11-26-18-31s-11-9-26-12-34-1-34-1V210l-433-1c-2,29,3,78,3,78s3,53,33,97,92,60,92,60,172,1,176,0c59.06-14.76,84-51,86-53,5.52-5.52,4-9,7-9,35,0,67-10,91-28S513.47,297,511.47,290Zm-38,32c-14,22-59,28-58,26,12.81-25.61,15-70,15-70,24-5,40,3,42,5S487.47,300,473.47,322Z"/><path class="cls-1" d="M43.47,456h365s1,17-17,22c-1,.27-74,0-74,0s-1,9-10,11c-1,.22-164,0-164,0a14.65,14.65,0,0,1-10-11c-.21-1-74,0-74,0S43.47,473,43.47,456Z"/><path class="cls-1" d="M176.47,193s31-13,10-56c-4.52-9.25-28.6-29-26-72,2-33,58-65,75-65,4,0-48,28.26-28,86,9,26,34,57,19,82S176.47,193,176.47,193Z"/><path class="cls-1" d="M265.28,91.1s-15.68,6.58-5.06,28.33c2.28,4.68,14.47,14.69,13.15,36.43-1,16.69-29.34,32.88-37.94,32.88-2,0,24.28-14.3,14.17-43.51C245,132.08,232.39,116.4,240,103.75S265.28,91.1,265.28,91.1Z"/><path class="cls-2" d="M34.57,315.18c.3,2.94,2.16,4.26,5,4.26,2.34,0,3.6-.66,3.6-2.28,0-1.86-1.56-2.46-7.62-4-13.31-3.42-15.35-8.22-15.35-13.85,0-6,4.2-13.56,18.65-13.56,13.32,0,19,6.3,19.56,13.44H43.15c-.24-2.1-1.26-3.54-4-3.54-1.79,0-2.88.54-2.88,1.92s1.32,2,7.38,3.66c14,3.83,16.08,8.69,16.08,14.45,0,7.8-6.18,13.62-20.22,13.62-13.13,0-19.74-5.88-20.45-14.1Z"/><path class="cls-2" d="M79.75,285.25v14a12.29,12.29,0,0,1,9.12-3.78c7.38,0,10.14,5,10.14,11.88V328.2h-16V308.76c0-2-.48-2.76-1.56-2.76-1.5,0-1.74,1.27-1.74,4V328.2h-16V285.25Z"/><path class="cls-2" d="M119.41,315.06c0,2.82.36,5.1,2.64,5.1,1.8,0,2.4-1.14,2.64-2.52h15.42c-1.26,4.92-5.1,11.4-18.18,11.4-14.64,0-18.66-8.7-18.66-16.91,0-8.7,4.86-16.68,18.72-16.68,14.64,0,18.36,9.3,18.36,16.79,0,1-.06,2-.12,2.82Zm4.86-7c0-2.27-.18-4.14-2.4-4.14-1.8,0-2.46,1.69-2.46,4.14Z"/><path class="cls-2" d="M180.31,322.26c0,10.8-3.72,17.4-19,17.4-14.16,0-16.56-7.14-17.1-10.92h15.3c.24,1.2.66,2,2.34,2s2.46-1,2.46-4.8v-2.4c-1.56,2.16-3.78,3.6-8.22,3.6-8.1,0-12.48-6.6-12.48-15.06,0-10.07,5.28-16.61,13.2-16.61,4.62,0,6.9,1.8,7.5,3.48.06-.9.18-2,.3-2.64h15.78c-.06,1.26-.12,4.32-.12,9.17Zm-20.28-11c0,4.08.42,6.6,2.4,6.6,2.16,0,2.4-2.16,2.4-6.42,0-5-.12-6.77-2.22-6.77C160.87,304.63,160,306.25,160,311.22Z"/><path class="cls-2" d="M200.77,315.06c0,2.82.36,5.1,2.64,5.1,1.8,0,2.4-1.14,2.64-2.52h15.42c-1.26,4.92-5.1,11.4-18.18,11.4-14.64,0-18.66-8.7-18.66-16.91,0-8.7,4.86-16.68,18.72-16.68,14.64,0,18.36,9.3,18.36,16.79,0,1-.06,2-.12,2.82Zm4.86-7c0-2.27-.18-4.14-2.4-4.14-1.8,0-2.46,1.69-2.46,4.14Z"/><path class="cls-2" d="M226.09,306.37c0-3.37-.06-7.32-.12-10.08h15.6a46.53,46.53,0,0,1,.36,4.79c1-2.27,3.72-5.51,9.24-5.63v14c-7.32-.35-9.06,1.5-9.06,6.42v12.3h-16Z"/><path class="cls-2" d="M307.69,313.44c-1.32,10.08-8.4,15.84-21.18,15.84-14,0-21.24-8.94-21.24-21.36s6.54-22.19,22-22.19c13.74,0,19.62,7.8,20.16,15.42H291.19C291,298,289.81,296,287.05,296c-3.9,0-4.74,4.38-4.74,11.39,0,6.24.66,11.58,4.68,11.58,3.18,0,4-2.64,4.38-5.52Z"/><path class="cls-2" d="M345.55,317c0,4.56.06,9.48.3,11.16H331.63a15.29,15.29,0,0,1-.6-3.06c-2.16,2.46-5,3.9-9.42,3.9-6.12,0-11.1-3.42-11.1-10.38,0-7.86,6.24-10.86,16.74-10.86h3.12v-1.74c0-1.85-.6-2.52-2-2.52s-2,1-2.1,2.71H312c.3-4.21,2.52-10.8,16.62-10.8,13.62,0,17,5.22,17,12.95Zm-15.18-2.76h-1.5c-2.28,0-3.06,1.14-3.06,2.76a2.14,2.14,0,0,0,2.1,2.4c2,0,2.46-1.2,2.46-3.84Z"/><path class="cls-2" d="M352.57,328.2V305.88H349v-9.59h3.54v-.6c0-7,3.42-11,13-11a31.79,31.79,0,0,1,6,.48v8.34a5.89,5.89,0,0,0-1.32-.12,1.43,1.43,0,0,0-1.62,1.56v1.38h4.08v9.59h-4.08V328.2Z"/><path class="cls-2" d="M390.37,315.06c0,2.82.36,5.1,2.64,5.1,1.8,0,2.4-1.14,2.64-2.52h15.42c-1.26,4.92-5.1,11.4-18.18,11.4-14.64,0-18.66-8.7-18.66-16.91,0-8.7,4.86-16.68,18.72-16.68,14.64,0,18.36,9.3,18.36,16.79,0,1-.06,2-.12,2.82Zm4.86-7c0-2.27-.18-4.14-2.4-4.14-1.8,0-2.46,1.69-2.46,4.14Z"/></g></g></svg>